<svg xmlns="http://www.w3.org/2000/svg" viewBox="0 0 120 120" fill="none">
  <rect width="120" height="120" rx="24" fill="#FEF3C7"/>
  <!-- Left Sock -->
  <path d="M40 28 L54 28 L54 62 L66 74 C69 77 69 82 66 85 C63 88 58 88 55 85 L36 66 C34 64 34 60 34 57 L34 34 C34 30.7 36.7 28 40 28 Z" fill="#F59E0B" stroke="#D97706" stroke-width="2.5" stroke-linejoin="round"/>
  <!-- Left Sock Stripes & Heel -->
  <path d="M36 34 L52 34 M36 40 L52 40" stroke="#FFFFFF" stroke-width="2.5" stroke-linecap="round"/>
  <path d="M34 58 C34 66 42 66 42 58" fill="#D97706"/>
  <path d="M60 80 C65 85 66 78 61 74" fill="#D97706"/>

  <!-- Right Sock -->
  <path d="M66 28 L80 28 L80 62 L92 74 C95 77 95 82 92 85 C89 88 84 88 81 85 L62 66 C60 64 60 60 60 57 L60 34 C60 30.7 62.7 28 66 28 Z" fill="#FBBF24" stroke="#D97706" stroke-width="2.5" stroke-linejoin="round"/>
  <!-- Right Sock Stripes & Heel -->
  <path d="M62 34 L78 34 M62 40 L78 40" stroke="#FFFFFF" stroke-width="2.5" stroke-linecap="round"/>
  <path d="M60 58 C60 66 68 66 68 58" fill="#D97706"/>
  <path d="M86 80 C91 85 92 78 87 74" fill="#D97706"/>
</svg>
